# xmcd CD database file
#
# Track frame offsets:
#	150
#	12512
#	25272
#	36655
#	47107
#	59225
#	73560
#	85502
#	97267
#	108527
#	132120
#	139690
#	154975
#	165627
#	178750
#	190255
#	203287
#	214825
#	226332
#	238990
#
# Disc length: 3478 seconds
#
# Revision: 3
# Processed by: cddbd v1.5.2PL0 Copyright (c) Steve Scherf et al.
# Submitted via: Fey Extractor 
#
DISCID=260d9414
DTITLE=Living The Blues - Louisiana Blues Classics - Living The Blues - Louisiana Blues Classics
DYEAR=1999
DGENRE=Blues
TTITLE0=Living The Blues - Louisiana Blues Classics - Smiley Lewis - I Hear You Knocking
TTITLE1=Living The Blues - Louisiana Blues Classics - Professor Longhair - Go To The Mardi Gras
TTITLE2=Living The Blues - Louisiana Blues Classics - Fats Domino - Going To The River
TTITLE3=Living The Blues - Louisiana Blues Classics - Lloyd Price - Tell Me Pretty Baby
TTITLE4=Living The Blues - Louisiana Blues Classics - Guitar Slim - It Hurts To Love Someone
TTITLE5=Living The Blues - Louisiana Blues Classics - Lonesome Sundown - My Home Is A Prison
TTITLE6=Living The Blues - Louisiana Blues Classics - Art Neville - Cha Dooky Doo
TTITLE7=Living The Blues - Louisiana Blues Classics - Champion Jack Dupree - Blues For Everybody
TTITLE8=Living The Blues - Louisiana Blues Classics - Wee Willie Wayne - Travelin' Mood
TTITLE9=Living The Blues - Louisiana Blues Classics - Archibald - Stack-A-Lee (Parts 1 and 2)
TTITLE10=Living The Blues - Louisiana Blues Classics - Rockin' Sidney - You Ain't Nothin' But Fine
TTITLE11=Living The Blues - Louisiana Blues Classics - Lazy Lester - They Call Me Lazy
TTITLE12=Living The Blues - Louisiana Blues Classics - Irma Thomas - Don't Mess With My man
TTITLE13=Living The Blues - Louisiana Blues Classics - Clifton Chenier - My Soul
TTITLE14=Living The Blues - Louisiana Blues Classics - Chris Kenner - SIck And Tired
TTITLE15=Living The Blues - Louisiana Blues Classics - Slim Harpo - Tip on in, Part 1
TTITLE16=Living The Blues - Louisiana Blues Classics - Cleveland Crochet - Sugar Bee
TTITLE17=Living The Blues - Louisiana Blues Classics - Katie Webster and Ashton Conroy - No Bread, No Meat
TTITLE18=Living The Blues - Louisiana Blues Classics - Earl King - Trick Bag
TTITLE19=Living The Blues - Louisiana Blues Classics - Bobby Marchan - There Is Something On Your Mind
EXTD=YEAR: 1999
EXTT0=
EXTT1=
EXTT2=
EXTT3=
EXTT4=
EXTT5=
EXTT6=
EXTT7=
EXTT8=
EXTT9=
EXTT10=
EXTT11=
EXTT12=
EXTT13=
EXTT14=
EXTT15=
EXTT16=
EXTT17=
EXTT18=
EXTT19=
PLAYORDER=
